<svg xmlns="http://www.w3.org/2000/svg" viewBox="0 0 512 512">
  <defs>
    <linearGradient id="bg" x1="0%" y1="0%" x2="100%" y2="100%">
      <stop offset="0%" stop-color="#be93a8"/>
      <stop offset="100%" stop-color="#9b6f87"/>
    </linearGradient>
  </defs>
  <rect width="512" height="512" rx="96" fill="url(#bg)"/>
  <g fill="white" transform="translate(96, 96)">
    <path d="M160 0c88.4 0 160 71.6 160 160c0 33.4-10.2 64.5-27.7 90.2c-7.7 11.3-19.6 18.6-32.6 22.6c-12.8 4-26.4 4.7-39.7 1.7c-9.5-2.1-19.4-2.1-28.9 0c-13.3 3-26.9 2.3-39.7-1.7c-13-4-24.9-11.3-32.6-22.6C10.2 224.5 0 193.4 0 160C0 71.6 71.6 0 160 0z" opacity="0.9"/>
    <circle cx="100" cy="140" r="14"/>
    <circle cx="220" cy="140" r="14"/>
    <path d="M100 200 Q160 240 220 200" stroke="white" stroke-width="10" fill="none" stroke-linecap="round"/>
  </g>
</svg>
